<?xml version="1.0" encoding="UTF-8" standalone="no"?>
<svg
   xmlns:dc="http://purl.org/dc/elements/1.1/"
   xmlns:cc="http://creativecommons.org/ns#"
   xmlns:rdf="http://www.w3.org/1999/02/22-rdf-syntax-ns#"
   xmlns:svg="http://www.w3.org/2000/svg"
   xmlns="http://www.w3.org/2000/svg"
   viewBox="0 0 547.47998 148.30667"
   height="148.30667"
   width="547.47998"
   xml:space="preserve"
   id="svg2"
   version="1.1"><metadata
     id="metadata8"><rdf:RDF><cc:Work
         rdf:about=""><dc:format>image/svg+xml</dc:format><dc:type
           rdf:resource="http://purl.org/dc/dcmitype/StillImage" /></cc:Work></rdf:RDF></metadata><defs
     id="defs6"><clipPath
       id="clipPath18"
       clipPathUnits="userSpaceOnUse"><path
         id="path16"
         d="M 0,111.23 H 410.61 V 0 H 0 Z" /></clipPath></defs><g
     transform="matrix(1.3333333,0,0,-1.3333333,0,148.30667)"
     id="g10"><g
       id="g12"><g
         clip-path="url(#clipPath18)"
         id="g14"><g
           transform="translate(66.2002,93.28)"
           id="g20"><path
             id="path22"
             style="fill:#0280c3;fill-opacity:1;fill-rule:nonzero;stroke:none"
             d="m 0,0 h 332.42 c 6.627,0 12,-5.373 12,-12 v -51.33 c 0,-6.628 -5.373,-12 -12,-12 H 0 c -6.627,0 -12,5.372 -12,12 V -12 c 0,6.627 5.373,12 12,12" /></g><g
           transform="translate(55.6099,111.2301)"
           id="g24"><path
             id="path26"
             style="fill:#ffffff;fill-opacity:1;fill-rule:nonzero;stroke:none"
             d="m 0,0 c 30.713,0 55.61,-24.897 55.61,-55.61 0,-30.713 -24.897,-55.61 -55.61,-55.61 -30.712,0 -55.61,24.897 -55.61,55.61 C -55.61,-24.897 -30.712,0 0,0" /></g><g
           transform="translate(100.27,37.8097)"
           id="g28"><path
             id="path30"
             style="fill:#dc6e2b;fill-opacity:1;fill-rule:nonzero;stroke:none"
             d="M 0,0 -13.21,19.791 -3.1,34.69 c 1.19,1.74 0.72,3.49 -0.79,4.13 -1.853,0.568 -3.865,-0.05 -5.08,-1.56 l -9,-10.34 -6.22,9.33 c -1.309,1.787 -3.583,2.582 -5.72,2 -1.829,-0.589 -2.835,-2.55 -2.245,-4.379 0.036,-0.112 0.077,-0.223 0.125,-0.331 l 7.24,-14.7 -10.4,-11.75 c -1.399,-1.761 -1.586,-4.196 -0.47,-6.15 l 2.6,-4.12 c 0.539,-1.174 1.928,-1.689 3.102,-1.15 0.485,0.222 0.879,0.603 1.118,1.08 l 8.75,12.9 7.1,-13 c 0.875,-1.993 3.056,-3.069 5.17,-2.549 l 6.26,1.71 c 1.419,0.253 2.363,1.609 2.109,3.028 -0.077,0.433 -0.262,0.84 -0.539,1.182" /></g><g
           transform="translate(23.4902,40.8996)"
           id="g32"><path
             id="path34"
             style="fill:#4f2275;fill-opacity:1;fill-rule:nonzero;stroke:none"
             d="m 0,0 c -4.44,0 -8,6.311 -8,14.09 0,7.781 3.61,14.08 8,14.08 4.39,0 8,-6.299 8,-14.08 C 8,6.311 4.4,0 0,0 m 0,34.811 c -9.54,0 -17.27,-9.27 -17.27,-20.721 0,-11.449 7.72,-20.76 17.27,-20.76 9.55,0 17.27,9.28 17.27,20.731 0,11.449 -7.76,20.75 -17.27,20.75" /></g><g
           transform="translate(46.0698,81.2301)"
           id="g36"><path
             id="path38"
             style="fill:#95a41d;fill-opacity:1;fill-rule:nonzero;stroke:none"
             d="m 0,0 c -2.42,0 -3.26,-2 -3.11,-4 v -26.48 c 0.08,-2.49 1.31,-4 4.1,-4.05 h 14.6 c 2.31,0 3.57,0.489 3.79,2.39 v 4.58 c 0,2.12 -2.19,2.11 -3.66,2.08 h -6 c -2.38,0 -2.93,0.41 -3,2.76 v 18.81 c 0,2.2 -0.72,3.94 -3.15,4 z" /></g><g
           transform="translate(55.6099,111.2301)"
           id="g40"><path
             id="path42"
             style="fill:#cccccc;fill-opacity:1;fill-rule:nonzero;stroke:none"
             d="m 0,0 c -30.718,-0.01 -55.611,-24.92 -55.601,-55.639 0.005,-14.74 5.861,-28.876 16.281,-39.301 21.719,-21.719 56.931,-21.719 78.65,0 21.719,21.719 21.719,56.931 0,78.65 C 28.922,-5.825 14.76,0.041 0,0 M 0,-1.55 C 29.862,-1.554 54.067,-25.765 54.063,-55.626 54.062,-69.963 48.367,-83.711 38.23,-93.85 c -21.25,-20.981 -55.484,-20.762 -76.465,0.488 -20.793,21.061 -20.791,54.924 0.005,75.982 10.118,10.171 23.884,15.871 38.23,15.83" /></g><g
           transform="translate(223.8799,62.5802)"
           id="g44"><path
             id="path46"
             style="fill:#ffffff;fill-opacity:1;fill-rule:nonzero;stroke:none"
             d="m 0,0 c -1.037,0.729 -2.186,1.285 -3.399,1.65 -1.764,0.514 -3.638,0.514 -5.401,0 l -3.66,-1.27 c -0.77,0.56 -1.629,0.99 -2.54,1.27 -1.837,0.566 -3.803,0.566 -5.64,0 l -0.84,-0.27 -4.93,-1.74 c -0.848,-0.298 -1.414,-1.101 -1.41,-2 v -15.33 c 0,-1.16 0.94,-2.1 2.1,-2.1 h 0.01 2.11 c 1.16,-0.006 2.104,0.93 2.11,2.09 v 0.01 11.91 c -0.001,0.195 0.119,0.369 0.3,0.44 0.986,0.438 2.015,0.773 3.07,1 1.526,0.011 2.817,-1.125 3,-2.64 v -10.701 c 0,-1.165 0.945,-2.109 2.11,-2.109 h 2.13 c 1.165,0 2.11,0.944 2.11,2.109 V -5.35 c -0.001,0.224 0.139,0.424 0.35,0.5 0.618,0.26 1.267,0.441 1.93,0.54 0.843,-0.051 1.654,-0.339 2.341,-0.83 1.091,-0.773 1.735,-2.032 1.719,-3.37 v -9.15 c 0,-1.165 0.945,-2.111 2.11,-2.111 h 2.08 c 1.179,0.006 2.135,0.961 2.14,2.141 v 9.109 c 0,3.501 -1,6.341 -3.89,8.511" /></g><g
           transform="translate(302.21,63.6598)"
           id="g48"><path
             id="path50"
             style="fill:#ffffff;fill-opacity:1;fill-rule:nonzero;stroke:none"
             d="m 0,0 c -1.435,0.654 -2.993,0.995 -4.57,1 -1.017,0.008 -2.03,-0.144 -3,-0.45 l -0.84,-0.27 -5.06,-1.95 c -0.837,-0.312 -1.396,-1.106 -1.41,-2 v -15.09 c 0.059,-1.191 1.048,-2.122 2.24,-2.11 h 2.11 c 1.104,-0.002 2.002,0.893 2.003,1.997 0,0.038 -0.001,0.076 -0.003,0.113 v 11.92 c 0.028,0.183 0.149,0.339 0.32,0.41 0.996,0.439 2.035,0.774 3.1,1 0.902,-0.017 1.794,-0.2 2.631,-0.54 1.089,-0.442 2.332,0.084 2.773,1.175 0.002,0.005 0.004,0.01 0.006,0.015 l 0.8,2.06 c 0.401,1.049 -0.085,2.229 -1.11,2.69" /></g><g
           transform="translate(183.2402,49.0705)"
           id="g52"><path
             id="path54"
             style="fill:#ffffff;fill-opacity:1;fill-rule:nonzero;stroke:none"
             d="M 0,0 C -2.391,-0.045 -4.366,1.856 -4.411,4.248 -4.413,4.378 -4.41,4.509 -4.4,4.64 -4.516,7.072 -2.638,9.139 -0.205,9.254 2.228,9.371 4.294,7.492 4.41,5.06 4.417,4.92 4.417,4.779 4.41,4.64 4.582,2.254 2.787,0.182 0.402,0.01 0.271,0.001 0.141,-0.003 0.01,0 M 0,15.75 c -7,0 -10.76,-5.48 -10.76,-11.11 0,-5.63 3.72,-11.111 10.76,-11.111 7.04,0 10.76,5.521 10.76,11.111 C 10.76,10.229 7,15.75 0,15.75" /></g><g
           transform="translate(263.5703,47.9504)"
           id="g56"><path
             id="path58"
             style="fill:#ffffff;fill-opacity:1;fill-rule:nonzero;stroke:none"
             d="m 0,0 c -0.395,0.998 -1.471,1.546 -2.511,1.279 -1.167,-0.374 -2.422,-0.374 -3.59,0 -0.62,0.273 -1.06,0.841 -1.17,1.511 v 7.899 h 2.821 c 1.102,-0.06 2.046,0.785 2.106,1.888 0.003,0.037 0.004,0.075 0.004,0.112 v 2.141 c 0.006,1.183 -0.929,2.156 -2.11,2.2 h -2.821 v 4.85 c 0.007,1.182 -0.927,2.157 -2.109,2.2 h -2.11 c -1.17,-0.059 -2.087,-1.029 -2.08,-2.2 V 3.149 c 0,-0.939 -0.12,-4.7 3,-7 1.413,-0.997 3.111,-1.508 4.84,-1.46 h 0.16 c 1.663,-0.04 3.323,0.159 4.929,0.59 1.118,0.335 1.751,1.511 1.417,2.627 -0.016,0.055 -0.036,0.11 -0.056,0.163 z" /></g><g
           transform="translate(313.6104,56.7902)"
           id="g60"><path
             id="path62"
             style="fill:#ffffff;fill-opacity:1;fill-rule:nonzero;stroke:none"
             d="m 0,0 c -1.83,0.39 -3.17,0.77 -3.17,1.34 0,0.74 1.35,1 2.609,0.92 1.41,-0.047 2.785,-0.446 4,-1.16 0.994,-0.533 2.23,-0.2 2.821,0.76 l 0.91,1.5 C 7.762,4.331 7.455,5.599 6.483,6.191 6.479,6.194 6.475,6.197 6.47,6.2 4.295,7.461 1.812,8.091 -0.7,8.02 c -6.191,0 -8.811,-3.52 -8.811,-6.53 0,-3.01 1.891,-5.261 5.821,-6.341 3.23,-0.889 5.11,-1.489 5.11,-2.379 0,-0.72 -0.91,-0.92 -2.231,-0.92 -1.758,0.099 -3.461,0.646 -4.95,1.589 -0.948,0.563 -2.17,0.312 -2.819,-0.58 L -9.73,-8.75 c -0.664,-0.925 -0.451,-2.212 0.473,-2.875 0.023,-0.016 0.044,-0.03 0.067,-0.045 2.527,-1.644 5.484,-2.508 8.5,-2.48 6.219,0 8.81,3.5 8.81,6.94 0,3.899 -2.86,6.13 -8.1,7.24" /></g><g
           transform="translate(239.6904,56.7502)"
           id="g64"><path
             id="path66"
             style="fill:#ffffff;fill-opacity:1;fill-rule:nonzero;stroke:none"
             d="m 0,0 c -1.83,0.39 -3.171,0.77 -3.171,1.34 0,0.74 1.351,1 2.61,0.92 1.41,-0.047 2.785,-0.446 4,-1.16 0.994,-0.533 2.23,-0.2 2.821,0.76 l 0.91,1.5 C 7.762,4.331 7.455,5.599 6.483,6.191 6.479,6.194 6.475,6.197 6.47,6.2 4.298,7.459 1.819,8.089 -0.69,8.02 -6.881,8.02 -9.5,4.5 -9.5,1.49 c 0,-3.01 1.89,-5.261 5.819,-6.341 C -0.45,-5.74 1.43,-6.34 1.43,-7.23 c 0,-0.72 -0.91,-0.92 -2.231,-0.92 -1.754,0.098 -3.454,0.641 -4.939,1.58 -0.949,0.562 -2.17,0.311 -2.821,-0.58 L -9.71,-8.76 c -0.663,-0.925 -0.451,-2.212 0.474,-2.875 0.021,-0.015 0.044,-0.03 0.065,-0.045 2.528,-1.645 5.485,-2.508 8.5,-2.48 6.221,0 8.811,3.5 8.811,6.94 0,3.9 -2.861,6.13 -8.1,7.24" /></g><g
           transform="translate(271,55.07)"
           id="g68"><path
             id="path70"
             style="fill:#ffffff;fill-opacity:1;fill-rule:nonzero;stroke:none"
             d="M 0,0 C -0.143,-0.044 -0.294,0.036 -0.338,0.178 -0.346,0.205 -0.351,0.232 -0.35,0.26 -0.231,2.116 1.096,3.671 2.91,4.08 5.07,4.72 6.84,4.15 7.68,3.08 7.768,2.959 7.741,2.791 7.62,2.703 7.602,2.689 7.581,2.678 7.56,2.67 Z m 1.76,-5.18 10.13,3.63 c 1.638,0.709 2.529,2.494 2.11,4.23 -0.61,3.63 -4.09,7.09 -9.64,7.09 -7.22,0 -11.61,-5.25 -11.05,-11.52 0.61,-6.83 4.14,-10.13 11,-10.79 2.576,-0.185 5.159,0.225 7.55,1.2 1.039,0.374 1.579,1.519 1.206,2.558 -0.019,0.055 -0.042,0.109 -0.066,0.162 l -0.76,1.78 c -0.402,1.051 -1.568,1.592 -2.63,1.22 -1.35,-0.56 -5.08,-2 -7.88,-0.08 -0.135,0.063 -0.194,0.223 -0.131,0.359 0.026,0.057 0.073,0.104 0.131,0.131" /></g><g
           transform="translate(376.0596,44.4201)"
           id="g72"><path
             id="path74"
             style="fill:#ffffff;fill-opacity:1;fill-rule:nonzero;stroke:none"
             d="M 0,0 C -0.17,2.1 0.421,4.12 -1.6,4.12 L -9.88,4 c -0.559,0 -2.229,-0.561 -1.84,-0.16 l 9.66,9.44 c 1.202,1.168 1.574,2.949 0.941,4.5 -0.777,1.643 -2.453,2.671 -4.271,2.62 h -12.38 c -0.807,0 -1.464,-0.652 -1.469,-1.46 v -2.89 c 0,-0.806 0.653,-1.46 1.46,-1.46 h 6.859 c 1.031,0.132 2.04,0.401 3,0.8 l -9.779,-9.92 c -1.246,-1.192 -1.642,-3.021 -1,-4.62 0.761,-1.602 2.396,-2.603 4.17,-2.55 h 12.87 c 0.872,-0.014 1.591,0.681 1.604,1.554 0.001,0.052 -0.001,0.104 -0.005,0.156" /></g><g
           transform="translate(328.2402,50.05)"
           id="g76"><path
             id="path78"
             style="fill:#ffffff;fill-opacity:1;fill-rule:nonzero;stroke:none"
             d="m 0,0 c -2.038,0 -3.69,-1.652 -3.69,-3.69 0,-2.038 1.652,-3.69 3.69,-3.69 2.038,0 3.689,1.652 3.689,3.69 C 3.689,-1.652 2.038,0 0,0" /></g><g
           transform="translate(347.7402,56.3102)"
           id="g80"><path
             id="path82"
             style="fill:#ffffff;fill-opacity:1;fill-rule:nonzero;stroke:none"
             d="M 0,0 C 2,1.36 4,2.57 5.51,3.47 6.371,3.982 6.664,5.088 6.17,5.96 L 5.09,7.92 C 4.593,8.807 3.472,9.123 2.585,8.626 2.57,8.618 2.555,8.609 2.54,8.6 0.43,7.35 -3.391,5.01 -6.971,2.37 v 12.86 c 0.001,1.118 -0.882,2.037 -2,2.08 -2.389,0.1 -4.819,0.19 -4.819,-2.12 v -26.851 c -0.063,-0.986 0.686,-1.837 1.674,-1.898 0.108,-0.007 0.218,-0.004 0.326,0.009 2.47,0 4.819,-0.45 4.819,1.88 v 6.48 c 0.66,0.58 1.381,1.17 2.151,1.76 2.177,-3.437 4.665,-6.666 7.429,-9.651 0.716,-0.728 1.888,-0.739 2.617,-0.023 0.044,0.042 0.085,0.087 0.124,0.134 l 1.429,1.71 C 7.386,-10.528 7.338,-9.456 6.67,-8.78 4.195,-6.053 1.964,-3.115 0,0" /></g><g
           transform="translate(166.8599,60.11)"
           id="g84"><path
             id="path86"
             style="fill:#ffffff;fill-opacity:1;fill-rule:nonzero;stroke:none"
             d="m 0,0 -4.65,2.63 -0.53,0.3 c -1.578,0.89 -3.46,1.072 -5.18,0.5 l -1.69,-0.57 -5,-1.85 c -2.496,-0.737 -4.233,-2.998 -4.3,-5.6 v -11 c -0.033,-1.071 0.808,-1.966 1.878,-2 0.041,-0.001 0.081,-0.001 0.122,0 h 2 c 1.104,-0.028 2.022,0.845 2.05,1.949 0,0.017 0,0.034 0,0.051 v 9.25 c 0.025,1.045 0.713,1.958 1.71,2.27 l 1.5,0.51 2.59,0.88 c 0.666,0.212 1.39,0.14 2,-0.2 l 2.76,-1.57 0.12,-0.07 c 0.737,-0.425 1.182,-1.22 1.16,-2.07 v -9 c 0.085,-1.186 1.082,-2.099 2.27,-2.08 h 2 c 1.183,-0.1 2.223,0.779 2.323,1.962 0.004,0.049 0.006,0.099 0.007,0.148 V -5.2 C 3.121,-3.034 1.936,-1.047 0.04,0" /></g><g
           transform="translate(152,68.86)"
           id="g88"><path
             id="path90"
             style="fill:#ffffff;fill-opacity:1;fill-rule:nonzero;stroke:none"
             d="M 0,0 C 0,1.16 -0.49,1.7 -1.68,1.7 H -4.82 C -6.02,1.7 -6.51,1.16 -6.51,0 v -8 c 0,-0.37 0.51,-0.62 0.74,-0.31 1,1.41 4.77,2.53 4.77,2.53 1.25,0.4 1,1 1,2.3 z" /></g></g></g></g></svg>